<svg xmlns="http://www.w3.org/2000/svg" width="2666.667" height="2666.667" preserveAspectRatio="xMidYMid meet" version="1.0" viewBox="0 0 2000 2000"><metadata>Created by potrace 1.14, written by Peter Selinger 2001-2017</metadata><g fill="#000" stroke="none"><path d="M10094 16345 c-10 -15 -14 -34 -10 -49 6 -26 104 -104 238 -191 42 -28 77 -56 77 -63 1 -7 -8 -32 -18 -55 -11 -23 -34 -78 -51 -122 -17 -44 -35 -84 -39 -90 -4 -5 -14 -26 -22 -45 -23 -58 -127 -237 -188 -323 -55 -77 -222 -256 -301 -322 -64 -53 -119 -95 -125 -95 -4 0 -21 -11 -39 -25 -47 -38 -48 -39 -96 -67 -60 -35 -218 -114 -253 -128 -25 -9 -41 -4 -133 40 -58 28 -139 60 -181 71 -72 20 -77 20 -89 4 -26 -35 17 -79 144 -151 l84 -47 -6 -41 c-3 -23 -8 -66 -11 -96 -3 -30 -8 -62 -10 -70 -2 -8 -7 -30 -10 -47 -14 -87 -68 -281 -94 -338 -47 -106 -98 -209 -123 -250 -41 -66 -80 -126 -95 -145 -64 -82 -138 -169 -206 -241 l-81 -86 -66 29 c-98 44 -238 98 -255 98 -21 0 -48 -45 -40 -69 7 -23 110 -89 238 -152 100 -50 97 -36 45 -179 -114 -318 -270 -620 -431 -835 -85 -112 -163 -208 -181 -221 -25 -17 -30 -48 -11 -64 11 -9 17 -7 27 9 11 18 23 21 85 21 l73 0 -48 -62 c-26 -35 -49 -65 -53 -68 -3 -3 -20 -26 -38 -51 l-33 -47 -69 34 c-38 19 -72 34 -76 34 -5 0 -21 7 -38 16 -39 20 -190 64 -221 64 -34 0 -50 -35 -30 -65 20 -31 127 -92 244 -140 113 -46 113 -42 10 -188 -39 -56 -90 -129 -113 -162 -22 -33 -50 -74 -62 -90 -39 -55 -190 -290 -214 -332 -13 -23 -34 -47 -46 -52 -13 -6 -23 -15 -23 -20 0 -5 -6 -16 -12 -23 -7 -7 -31 -36 -53 -63 -22 -28 -45 -54 -51 -60 -6 -5 -39 -46 -75 -90 -61 -77 -448 -545 -459 -555 -3 -3 -34 -39 -70 -80 -35 -41 -71 -82 -80 -91 -8 -9 -55 -61 -105 -115 -114 -126 -341 -352 -519 -519 -77 -71 -189 -177 -249 -235 -112 -108 -137 -128 -137 -111 0 5 -6 16 -12 23 -7 8 -19 25 -27 38 -7 13 -50 87 -94 164 -44 78 -81 150 -82 161 -1 12 -15 27 -36 37 -48 23 -289 64 -289 48 0 -3 13 -21 28 -40 92 -113 302 -409 302 -425 0 -3 8 -18 18 -33 10 -15 31 -45 45 -67 l27 -40 -61 -61 c-67 -68 -72 -93 -12 -63 21 10 50 21 66 25 32 7 31 14 17 -146 -5 -58 -14 -278 -20 -490 -14 -517 0 -988 40 -1370 8 -78 7 -86 -10 -100 -14 -11 -17 -19 -10 -30 5 -8 10 -24 10 -35 0 -12 8 -37 18 -56 17 -33 17 -38 1 -92 -20 -68 -83 -186 -155 -289 -82 -118 -69 -144 38 -79 113 69 335 131 370 104 28 -22 147 -38 273 -37 133 0 307 29 367 60 15 8 33 14 41 14 7 0 21 6 31 13 17 13 17 17 -8 108 -32 117 -64 209 -111 319 -20 47 -39 91 -42 98 -4 10 10 11 63 6 74 -7 214 16 266 42 26 14 28 13 34 -13 40 -180 171 -524 221 -584 51 -60 302 -258 413 -326 221 -135 426 -232 650 -308 36 -12 92 -31 125 -42 33 -11 114 -37 180 -58 66 -20 138 -43 160 -50 22 -7 85 -25 140 -40 55 -15 120 -33 145 -41 132 -38 498 -120 690 -154 30 -5 93 -16 140 -24 137 -25 356 -55 480 -66 63 -6 151 -15 195 -20 274 -31 913 -37 1240 -10 584 46 1187 180 1700 376 39 14 88 33 110 41 22 8 56 22 75 30 73 33 117 52 180 79 78 34 391 192 446 226 21 13 52 30 67 38 15 7 101 60 190 115 89 56 165 98 168 93 7 -10 12 -2 176 267 61 99 113 190 117 202 4 11 13 27 21 33 25 21 17 36 -27 56 -54 24 -171 25 -363 1 -298 -38 -374 -47 -480 -57 -60 -7 -156 -18 -211 -26 -56 -8 -113 -14 -126 -14 -33 0 -141 -66 -195 -121 -31 -31 -66 -88 -117 -189 -175 -348 -264 -468 -386 -524 -88 -40 -346 -127 -495 -167 -478 -129 -884 -183 -1380 -183 -296 0 -468 11 -692 45 -143 21 -167 26 -295 53 -117 25 -376 93 -488 128 -376 117 -908 308 -1055 378 -11 5 -74 32 -140 60 -280 119 -658 309 -1030 518 -93 52 -208 115 -255 140 -47 25 -89 48 -95 52 -5 4 -52 29 -102 55 -51 26 -93 51 -93 56 0 11 334 -161 510 -261 195 -112 625 -334 815 -422 250 -115 291 -133 555 -238 291 -116 586 -221 835 -295 50 -15 101 -30 115 -35 14 -4 54 -15 90 -25 36 -9 85 -23 110 -30 25 -6 72 -18 105 -25 33 -7 85 -18 115 -25 30 -7 89 -19 130 -25 41 -6 97 -16 125 -21 109 -21 508 -49 690 -48 191 1 464 18 468 30 1 4 -38 58 -88 120 -245 312 -593 652 -864 844 -23 17 -53 38 -66 48 l-24 17 43 123 c24 67 46 129 49 137 14 33 78 215 116 327 142 423 199 762 172 1035 -7 72 -19 153 -28 180 -8 28 -12 52 -9 55 3 3 32 -4 63 -16 122 -47 193 -65 205 -53 34 34 -170 153 -582 337 -198 89 -262 119 -610 287 -107 52 -219 106 -247 119 -54 25 -61 36 -42 67 11 18 15 17 78 -5 36 -14 95 -35 131 -47 57 -20 304 -121 398 -162 17 -8 47 -20 65 -28 17 -8 81 -37 141 -65 59 -28 110 -51 112 -51 6 0 480 -237 539 -270 28 -15 104 -55 170 -90 66 -35 158 -84 205 -110 47 -26 121 -66 165 -90 44 -23 109 -60 145 -80 36 -21 106 -59 155 -85 50 -26 95 -51 100 -55 6 -4 62 -34 125 -68 63 -33 140 -73 170 -89 147 -78 255 -137 258 -139 2 -1 13 -65 24 -141 16 -107 21 -190 22 -373 0 -232 -1 -244 -43 -515 -14 -83 -54 -264 -81 -360 -12 -44 -30 -109 -40 -145 -22 -80 -47 -158 -116 -367 -30 -89 -54 -164 -54 -167 0 -8 352 90 433 122 l48 18 -38 35 c-21 19 -65 56 -98 82 -33 26 -67 53 -75 60 -8 7 -34 26 -58 42 -47 33 -46 24 -12 145 120 424 168 700 177 1000 2 107 1 234 -4 283 -5 48 -6 87 -2 87 20 0 420 -195 672 -327 333 -175 588 -303 603 -303 21 0 17 28 -5 40 -13 6 -23 28 -30 62 -13 64 -33 239 -28 244 2 2 45 -15 96 -38 83 -39 92 -46 101 -78 13 -48 40 -274 40 -334 l0 -49 63 6 c34 4 136 16 227 27 272 34 327 36 407 12 38 -12 78 -31 88 -42 17 -19 19 -19 37 -4 10 10 18 21 18 25 0 16 -147 78 -255 107 -130 36 -322 62 -458 62 l-97 0 -1 28 c-1 15 -1 30 -1 33 1 3 -8 35 -18 70 -11 35 -20 65 -20 66 0 1 28 -10 63 -23 110 -44 200 -65 215 -50 7 7 10 19 7 27 -12 31 -264 173 -459 259 l-69 31 7 152 c4 83 8 159 8 167 0 8 4 38 9 65 5 28 12 64 15 80 3 17 10 48 15 70 6 22 12 47 14 55 20 99 95 283 172 420 108 193 127 220 143 214 62 -24 350 -85 362 -78 4 3 8 15 8 27 0 16 -9 26 -30 34 -16 6 -30 18 -30 26 0 8 -31 37 -69 65 -62 45 -72 57 -86 104 -9 29 -19 82 -22 118 -16 210 186 708 346 851 100 90 122 98 206 75 33 -9 89 -21 125 -28 62 -11 101 -32 165 -91 40 -37 54 -40 61 -12 8 31 -2 143 -15 179 -6 14 -8 26 -6 26 3 0 -4 23 -15 50 -11 28 -17 50 -15 50 3 0 1 8 -4 18 -5 9 -12 33 -15 53 -3 20 -10 48 -16 63 -5 15 -12 46 -15 69 -3 23 -7 49 -10 57 -2 8 -6 26 -9 40 -3 14 -7 34 -9 45 -10 48 -17 93 -22 140 -2 28 -9 82 -14 120 -26 175 -23 560 5 713 6 31 8 32 43 25 66 -12 76 -10 76 17 0 20 -14 32 -90 72 -101 53 -303 137 -556 233 l-97 36 45 77 c24 42 48 84 53 92 6 8 38 62 73 120 77 127 130 209 137 209 3 0 36 -36 75 -79 38 -44 75 -80 82 -80 22 0 36 80 29 167 -3 45 -9 89 -12 97 -7 20 3 16 119 -38 89 -42 117 -38 117 14 0 26 -10 36 -74 79 -41 27 -97 62 -125 77 -58 33 -57 28 -67 234 -7 149 9 425 32 564 8 50 17 106 19 125 8 65 48 242 69 311 15 48 19 49 74 24 35 -16 62 -7 62 22 0 14 -156 132 -247 188 -27 16 -64 39 -83 52 -19 12 -141 83 -270 157 -129 74 -319 182 -422 241 l-187 108 13 27 c8 14 39 79 70 144 54 113 58 119 102 139 49 21 125 28 188 15 62 -12 134 -57 207 -127 100 -97 155 -184 229 -357 12 -29 26 -53 31 -53 5 0 24 24 42 53 51 78 87 121 211 247 110 114 124 132 145 199 17 53 15 62 -13 51 -38 -14 -120 -3 -173 23 -50 26 -103 72 -265 229 -57 56 -120 107 -155 125 -85 45 -117 51 -48 8 73 -44 123 -92 223 -210 116 -138 153 -175 204 -201 53 -27 121 -31 175 -12 18 6 36 8 40 4 8 -7 -27 -41 -129 -126 -70 -57 -103 -102 -168 -225 -67 -127 -72 -135 -86 -135 -13 0 -38 57 -54 125 -42 176 -142 311 -279 377 -61 30 -74 32 -171 33 -110 0 -164 -14 -255 -65 -20 -11 -39 -19 -41 -18 -2 2 20 55 49 118 29 63 66 147 81 185 71 173 70 172 126 184 28 6 78 11 111 11 35 0 58 4 54 9 -3 5 -20 7 -39 4 -18 -3 -36 -1 -40 5 -3 6 19 75 49 154 50 129 65 188 49 188 -23 0 -82 -61 -174 -176 -97 -122 -280 -406 -280 -434 0 -9 -195 -409 -204 -418 -3 -2 -26 8 -51 22 -25 15 -118 63 -206 107 -155 78 -159 81 -153 107 10 41 15 43 63 21 25 -11 51 -17 58 -15 21 8 15 46 -9 67 -54 45 -316 213 -468 300 -91 52 -173 99 -182 104 -9 6 -29 17 -45 26 -91 51 -370 213 -380 221 -10 8 22 79 67 148 5 8 16 30 25 48 8 19 26 42 39 53 65 51 29 123 -98 191 -59 32 -85 35 -113 11 -26 -24 -32 -42 -22 -76 8 -27 4 -31 -112 -107 -85 -55 -125 -77 -137 -72 -9 5 -125 61 -257 126 -132 65 -339 167 -460 226 -258 127 -416 216 -573 325 -64 44 -170 124 -190 143 -21 19 -40 14 -58 -13z m460 -374 c114 -64 353 -183 521 -261 140 -65 450 -219 470 -233 18 -14 17 -16 -30 -45 -178 -110 -249 -157 -353 -232 -102 -74 -307 -233 -322 -249 -3 -3 -39 -35 -80 -70 -41 -35 -82 -71 -90 -80 -8 -9 -78 -67 -155 -130 -77 -63 -148 -121 -158 -130 -15 -12 -25 -13 -65 -3 -182 44 -280 66 -542 122 -74 15 -258 49 -347 63 -40 6 -73 14 -73 17 0 3 17 14 38 25 352 181 581 383 803 705 113 164 202 355 239 513 7 31 15 57 17 57 2 0 60 -31 127 -69z m1103 -557 c2 -6 -63 -78 -144 -161 -284 -288 -652 -672 -759 -791 l-39 -44 -125 37 c-69 20 -133 39 -143 42 -10 3 -17 9 -15 13 2 4 44 45 93 91 50 45 110 101 135 124 36 34 177 153 250 212 171 138 420 317 590 425 100 64 148 79 157 52z m53 -32 c0 -4 -16 -26 -36 -48 -88 -94 -345 -377 -414 -453 -41 -46 -80 -89 -86 -95 -5 -6 -50 -56 -98 -111 -49 -55 -121 -135 -160 -179 -39 -43 -75 -85 -79 -92 -9 -16 -45 -18 -66 -5 -12 7 13 39 110 142 220 236 817 849 826 849 2 0 3 -4 3 -8z m80 -37 c17 -9 30 -18 30 -20 0 -3 -20 -31 -43 -62 -24 -32 -79 -109 -123 -171 -43 -62 -101 -144 -129 -182 -27 -38 -79 -110 -115 -160 -67 -94 -83 -116 -239 -332 l-92 -127 -102 36 c-56 20 -104 38 -106 39 -3 3 70 86 164 190 6 6 39 44 75 84 36 40 72 81 80 89 8 9 71 79 140 156 69 77 130 145 136 150 18 17 258 285 273 306 16 23 15 23 51 4z m59 -82 c-12 -21 -28 -45 -36 -54 -7 -8 -13 -18 -13 -21 0 -3 -38 -68 -84 -144 -47 -77 -113 -186 -148 -244 -81 -136 -165 -270 -245 -395 -124 -191 -105 -174 -166 -147 l-39 17 54 77 c29 42 91 129 138 194 47 65 106 148 131 184 41 57 248 346 282 392 6 9 37 53 67 97 30 44 61 80 68 81 10 0 7 -11 -9 -37z m266 -101 c99 -57 187 -107 195 -113 65 -40 389 -237 400 -242 8 -4 29 -16 45 -26 17 -11 58 -34 93 -52 35 -18 66 -37 69 -42 2 -4 -7 -54 -21 -110 -41 -163 -65 -300 -87 -487 -17 -147 -20 -214 -16 -420 7 -337 26 -560 52 -622 13 -33 -10 -18 -40 25 -91 129 -317 368 -471 497 -16 14 -45 39 -65 55 -37 32 -62 51 -149 114 -124 90 -228 157 -374 240 -108 61 -354 183 -438 217 -27 10 -48 24 -48 30 0 6 35 65 78 130 206 315 369 571 478 752 54 89 103 161 109 160 5 -2 91 -49 190 -106z m-2669 -487 c27 -8 65 -17 84 -20 103 -17 154 -27 175 -35 13 -5 43 -12 67 -14 24 -3 58 -10 76 -15 17 -5 32 -7 32 -4 0 3 7 0 15 -7 8 -7 15 -10 15 -7 0 3 14 2 32 -3 17 -5 49 -12 71 -15 21 -4 49 -10 62 -15 13 -5 42 -12 66 -15 24 -4 47 -8 50 -11 4 -2 24 -6 45 -10 51 -8 54 -12 24 -36 -14 -11 -51 -43 -84 -71 -32 -29 -63 -55 -70 -58 -9 -5 -695 327 -714 346 -8 8 0 6 54 -10z m-265 -19 c30 -13 142 -66 249 -118 107 -52 240 -116 295 -142 55 -26 145 -69 199 -95 l99 -47 -54 -50 c-30 -28 -117 -108 -194 -179 -77 -70 -268 -256 -425 -412 l-285 -285 -55 6 c-110 13 -248 24 -371 31 l-126 7 57 57 c64 62 135 146 196 231 185 261 315 616 339 928 4 50 11 92 15 92 4 0 32 -11 61 -24z m3874 -222 c72 -36 164 -84 205 -107 124 -69 154 -85 185 -100 17 -8 60 -33 98 -56 37 -22 70 -41 73 -41 4 0 205 -115 397 -229 43 -25 86 -50 96 -56 9 -5 46 -28 82 -51 121 -78 357 -214 369 -214 20 0 19 -23 -4 -112 -33 -126 -51 -216 -78 -388 -20 -130 -22 -180 -22 -485 0 -338 12 -533 38 -635 13 -51 9 -64 -10 -32 -55 88 -371 422 -504 534 -136 114 -334 253 -510 358 -147 88 -458 243 -562 280 -43 16 -39 0 -64 225 -22 189 -25 575 -5 725 30 233 69 450 80 450 3 0 65 -30 136 -66z m-2611 23 c3 4 6 1 6 -5 0 -7 3 -11 8 -10 11 3 69 -11 144 -35 60 -18 66 -23 57 -39 -8 -15 -17 -18 -38 -13 -34 7 -54 -13 -49 -49 2 -19 -11 -41 -55 -90 l-57 -64 -123 61 c-67 33 -124 61 -126 64 -3 2 37 46 89 98 81 81 96 92 115 85 13 -5 26 -6 29 -3z m336 -104 c0 -18 -34 -34 -58 -28 l-27 7 22 18 c20 15 63 18 63 3z m166 -54 c49 -17 92 -34 96 -38 4 -3 -5 -22 -20 -42 l-27 -36 -85 48 c-47 27 -89 51 -95 52 -10 4 22 47 35 47 4 0 47 -14 96 -31z m-306 -71 c18 -11 16 -15 -27 -68 -26 -30 -48 -56 -49 -58 -4 -6 -44 23 -44 31 0 8 89 107 97 107 2 0 12 -5 23 -12z m532 -17 c10 -9 -40 -91 -55 -91 -7 1 -27 9 -45 18 l-32 18 30 41 c29 40 32 41 63 31 18 -6 35 -14 39 -17z m-1094 10 c-1 -5 -61 -71 -133 -147 -177 -188 -175 -186 -273 -293 -48 -52 -92 -99 -98 -105 -5 -6 -55 -60 -109 -121 -54 -60 -115 -128 -136 -150 -20 -22 -50 -55 -66 -73 -27 -32 -31 -33 -74 -27 -25 4 -52 11 -60 16 -11 7 49 71 251 271 146 145 299 295 340 333 42 39 109 102 151 140 131 122 182 165 197 165 7 0 12 -4 10 -9z m229 -101 l92 -44 -31 -35 c-17 -20 -61 -70 -98 -111 -111 -123 -361 -408 -424 -484 -33 -39 -65 -76 -70 -82 -6 -6 -29 -33 -51 -60 -22 -26 -51 -60 -65 -75 l-25 -28 -165 41 c-91 22 -171 42 -178 44 -11 3 127 167 243 289 11 11 63 68 115 125 114 125 199 216 301 324 42 45 98 104 123 133 l47 52 47 -23 c26 -12 88 -42 139 -66z m467 19 l52 -31 -7 -60 c-4 -33 -9 -61 -10 -62 -2 -2 -46 18 -98 43 l-93 47 42 47 c23 26 47 47 52 47 5 0 33 -14 62 -31z m749 -99 c-4 -4 -29 -26 -55 -49 l-47 -43 -49 28 -49 27 26 63 26 62 78 -40 c43 -22 75 -44 70 -48z m-635 44 l31 -15 -36 -55 c-20 -30 -37 -54 -39 -54 -2 0 -4 32 -4 70 0 39 4 70 8 70 5 0 23 -7 40 -16z m-403 -48 c18 -13 14 -19 -56 -98 -41 -46 -99 -113 -129 -148 -30 -35 -75 -87 -100 -115 -25 -28 -56 -65 -69 -81 -34 -40 -135 -158 -141 -164 -3 -3 -41 -48 -85 -100 -133 -160 -138 -164 -179 -156 -19 4 -37 10 -40 14 -6 10 226 282 653 764 88 99 109 111 146 84z m521 -12 c24 -14 44 -28 44 -31 0 -10 -62 -93 -70 -93 -4 0 -29 9 -55 20 l-46 20 38 55 c21 30 39 55 41 55 2 0 23 -12 48 -26z m609 -19 c22 -14 47 -28 55 -32 19 -9 166 -100 205 -127 42 -29 167 -119 185 -133 222 -173 576 -493 546 -493 -4 0 -61 18 -125 39 -113 39 -207 67 -361 112 -41 12 -122 44 -180 72 -261 124 -558 263 -637 298 -24 10 -43 22 -43 27 0 4 35 33 78 65 42 31 111 88 152 126 41 39 77 70 80 70 3 0 23 -11 45 -24z m-940 -61 c112 -54 117 -59 93 -89 -5 -5 -49 -66 -98 -135 -49 -69 -115 -161 -147 -204 -32 -44 -74 -102 -93 -130 -20 -28 -63 -89 -97 -136 -34 -47 -86 -118 -114 -157 -29 -40 -57 -73 -62 -73 -6 0 -51 16 -101 36 -105 42 -191 73 -223 81 -13 3 -23 8 -23 12 0 7 34 48 140 171 26 30 94 109 150 174 57 66 115 133 130 150 15 17 62 72 106 121 155 177 207 235 215 235 5 0 60 -25 124 -56z m609 -70 c23 -9 20 -19 -10 -39 -32 -21 -38 -15 -23 19 14 29 12 28 33 20z m-405 -30 c33 -16 49 -30 44 -37 -43 -74 -387 -565 -541 -773 -68 -92 -63 -89 -138 -58 -18 8 -35 17 -37 21 -3 5 112 170 255 368 143 198 283 393 311 433 28 39 52 72 53 72 1 0 25 -12 53 -26z m608 -303 c454 -227 592 -295 753 -368 30 -14 82 -37 115 -53 33 -15 70 -30 83 -34 30 -10 28 -21 -7 -35 -16 -7 -47 -31 -71 -54 -46 -46 -172 -216 -220 -299 -17 -29 -45 -75 -62 -103 -142 -230 -227 -483 -228 -677 0 -38 -3 -68 -7 -67 -5 0 -30 32 -58 70 -182 254 -794 695 -1323 954 -56 28 -100 55 -98 61 2 5 60 87 127 181 106 147 171 239 319 452 14 20 54 78 89 129 35 50 69 92 76 92 8 0 238 -112 512 -249z m-2658 -237 c25 -1 75 -8 113 -14 l68 -12 -52 -59 c-29 -32 -56 -59 -61 -59 -9 0 -308 149 -317 157 -4 5 37 3 249 -13z m3636 -76 c66 -22 135 -49 152 -60 18 -10 38 -16 44 -12 8 4 9 3 5 -4 -4 -7 -1 -12 8 -12 8 0 47 -36 87 -80 39 -44 76 -80 80 -80 5 0 12 12 15 26 4 16 11 23 21 20 8 -3 137 -75 286 -159 150 -85 304 -171 342 -192 39 -20 117 -63 175 -95 58 -32 121 -66 142 -76 76 -39 501 -439 480 -453 -5 -3 -33 -42 -62 -86 -29 -44 -61 -92 -72 -107 -10 -15 -18 -29 -18 -31 0 -2 -22 -42 -48 -88 -213 -371 -311 -650 -328 -930 l-7 -109 -19 27 c-10 16 -34 52 -54 81 -79 118 -231 279 -393 415 -41 34 -104 87 -140 118 -54 45 -234 183 -303 232 -86 61 -222 149 -373 244 -86 54 -354 199 -448 243 -71 33 -117 61 -117 69 0 40 60 198 116 309 80 156 261 430 334 503 38 38 70 61 104 72 67 23 83 22 166 -14 56 -24 75 -28 86 -18 30 25 15 47 -63 89 -43 24 -100 55 -128 70 -27 15 -95 51 -150 80 -55 28 -102 54 -105 57 -10 10 67 -10 185 -49z m-3297 29 c20 0 15 -8 -62 -92 l-74 -80 -47 23 -47 23 68 70 c68 69 69 70 109 63 22 -4 46 -7 53 -7z m157 -33 c17 -3 48 -10 70 -16 46 -12 41 -11 123 -28 34 -7 64 -16 66 -19 7 -10 -195 -246 -207 -243 -25 7 -287 137 -287 142 0 3 10 16 23 30 12 14 47 53 76 88 47 54 58 62 80 57 14 -3 40 -8 56 -11z m-750 -59 c64 -30 119 -55 121 -55 11 0 114 -54 114 -59 0 -4 -19 -27 -43 -51 -24 -25 -72 -79 -107 -120 -36 -41 -68 -77 -71 -80 -8 -7 -282 -334 -317 -379 -15 -19 -39 -48 -53 -65 -15 -17 -72 -89 -128 -161 -73 -93 -110 -132 -129 -136 -41 -10 -112 -10 -112 0 0 4 17 28 38 52 246 288 462 705 538 1038 8 39 20 71 24 71 5 0 62 -25 125 -55z m1117 -34 l28 -10 -34 -38 c-50 -57 -117 -133 -155 -180 -31 -38 -36 -40 -62 -31 -16 5 -29 13 -29 18 0 7 133 172 179 221 11 12 21 26 21 31 0 4 6 5 13 3 6 -2 24 -9 39 -14z m173 -57 c39 -14 75 -26 80 -27 11 -3 39 -13 128 -47 54 -21 57 -24 42 -41 -16 -17 -19 -16 -73 12 -121 63 -234 110 -253 104 -25 -8 -45 -75 -30 -103 6 -11 60 -56 121 -99 l109 -77 -17 -27 c-9 -14 -28 -42 -40 -62 -13 -21 -29 -37 -34 -37 -10 0 -104 44 -280 130 -73 36 -74 39 -26 90 13 14 58 67 101 118 43 50 84 92 90 92 7 -1 44 -12 82 -26z m-962 -58 c26 -10 47 -23 47 -28 0 -8 -62 -84 -149 -181 -31 -34 -130 -151 -251 -292 -118 -138 -160 -188 -184 -215 -12 -14 -64 -76 -115 -137 l-94 -113 -58 0 c-32 0 -60 4 -63 9 -4 6 199 270 312 406 10 11 60 72 113 135 78 92 214 248 369 422 8 10 17 16 20 15 3 -1 26 -10 53 -21z m204 -94 c54 -27 122 -59 150 -73 29 -13 53 -28 53 -34 0 -5 -28 -44 -62 -85 -72 -90 -210 -261 -247 -309 -14 -18 -55 -70 -91 -115 -36 -44 -112 -141 -169 -213 -56 -73 -107 -133 -112 -133 -6 0 -60 11 -120 25 -61 13 -153 32 -207 40 -53 9 -98 17 -100 19 -2 3 216 266 238 286 3 3 43 50 90 105 47 55 87 102 90 105 3 3 59 68 125 144 66 77 129 149 140 160 11 12 40 45 64 74 25 28 48 52 52 52 4 0 52 -22 106 -48z m1172 -8 c2 -2 -4 -15 -13 -29 l-17 -25 -49 25 c-55 28 -55 28 -38 54 11 18 13 18 62 -2 28 -11 53 -22 55 -23z m113 -64 c-1 -6 -10 -22 -18 -35 l-16 -24 -33 22 -33 21 20 27 c19 26 22 26 52 14 17 -8 30 -19 28 -25z m107 -41 c31 -16 38 -24 32 -37 -4 -9 -15 -35 -25 -57 -10 -22 -35 -77 -57 -122 l-38 -83 -106 0 c-58 0 -105 2 -105 5 0 3 32 42 71 88 39 45 94 115 123 154 28 40 54 73 58 73 4 0 25 -9 47 -21z m-1108 -24 c19 -10 27 -20 22 -28 -4 -7 -88 -108 -188 -226 -99 -118 -236 -282 -304 -365 -190 -231 -185 -226 -214 -226 -46 0 -46 1 143 241 58 74 109 139 115 145 17 20 77 95 140 174 124 159 240 299 248 300 4 0 21 -7 38 -15z m684 -37 c25 -11 26 -16 20 -53 -3 -22 -16 -54 -27 -71 l-22 -31 -48 24 -48 24 17 27 c10 15 20 29 23 32 3 3 13 17 23 33 20 31 25 32 62 15z m-455 -73 c30 -15 92 -45 138 -66 84 -40 85 -42 56 -79 -7 -8 -54 -71 -103 -140 -50 -69 -94 -129 -98 -135 -16 -19 -268 -368 -307 -424 -21 -31 -40 -58 -42 -60 -3 -4 -103 27 -356 110 -32 11 -63 19 -71 19 -7 0 -22 6 -33 14 -18 14 -18 16 12 48 17 18 70 83 119 143 49 61 118 146 155 190 36 44 106 129 155 188 50 60 102 123 118 140 15 18 44 53 63 78 l36 47 52 -23 c28 -13 76 -36 106 -50z m520 35 c0 -5 -5 -10 -11 -10 -5 0 -7 5 -4 10 3 6 8 10 11 10 2 0 4 -4 4 -10z m100 -60 c0 -10 -78 -103 -91 -108 -4 -2 -17 2 -29 8 -27 14 -20 40 27 97 35 42 35 42 64 27 16 -8 29 -19 29 -24z m782 -146 c150 -99 193 -133 152 -120 -75 23 -451 96 -494 96 -8 0 21 81 56 158 l15 33 57 -32 c31 -18 128 -78 214 -135z m-1072 11 l31 -16 -31 -42 c-17 -23 -57 -74 -88 -113 -31 -40 -107 -134 -167 -210 -233 -294 -327 -404 -344 -404 -9 0 -26 6 -36 14 -18 13 -14 20 68 132 48 66 91 124 95 129 4 6 95 130 201 277 213 295 189 275 271 233z m161 -76 c46 -23 134 -65 194 -94 61 -29 193 -93 295 -142 102 -50 210 -102 240 -115 30 -14 105 -49 165 -78 123 -58 245 -116 350 -165 320 -150 415 -197 415 -207 0 -4 -9 -10 -20 -13 -11 -3 -20 -11 -20 -16 0 -5 -6 -9 -14 -9 -23 0 -158 -139 -232 -240 -92 -126 -102 -142 -183 -305 -79 -158 -117 -269 -127 -367 -7 -76 -6 -76 -82 -7 -156 144 -625 490 -757 559 -11 6 -49 29 -85 51 -36 22 -74 44 -85 50 -11 5 -56 30 -100 55 -133 75 -452 229 -577 279 l-68 27 68 86 c36 48 102 132 146 187 43 55 89 114 101 130 13 17 50 64 82 105 33 41 84 109 114 150 49 68 90 120 94 120 1 0 40 -19 86 -41z m269 1 c0 -13 -11 -13 -30 0 -12 8 -11 10 8 10 12 0 22 -4 22 -10z m330 -39 c19 -10 51 -28 70 -39 32 -19 94 -55 190 -109 19 -11 112 -64 205 -118 94 -54 184 -106 200 -115 17 -9 127 -72 245 -140 199 -114 250 -148 250 -171 0 -13 -11 -8 -350 159 -173 85 -421 206 -550 269 -332 161 -360 176 -360 187 0 6 7 30 16 53 19 48 32 52 84 24z m629 -128 c11 4 241 -186 241 -199 0 -5 -10 1 -170 95 -47 27 -118 69 -157 91 -40 23 -73 45 -73 50 0 4 34 -3 76 -16 42 -13 79 -22 83 -21z m753 -298 c62 -31 116 -60 121 -64 5 -6 -53 -152 -68 -169 -3 -3 -56 26 -165 91 -41 24 -74 50 -73 58 1 8 7 46 13 86 14 84 -3 85 172 -2z m-3982 24 c0 -4 -4 -9 -8 -11 -8 -3 -146 -164 -201 -234 -21 -27 -22 -26 -79 12 -2 2 36 57 85 123 l88 120 58 -1 c31 -1 57 -4 57 -9z m140 -13 c25 -3 65 -8 90 -11 25 -3 61 -10 81 -15 20 -6 49 -12 65 -14 61 -8 114 -19 114 -23 0 -4 -26 -38 -175 -226 -47 -60 -91 -117 -98 -128 -15 -24 -16 -24 -79 5 -92 42 -161 72 -231 101 -37 16 -70 32 -72 36 -5 7 38 63 158 207 47 55 75 81 86 78 9 -2 36 -7 61 -10z m426 -84 c7 -4 -39 -69 -128 -177 -77 -93 -146 -179 -154 -189 -7 -11 -16 -17 -20 -13 -9 9 268 387 284 387 4 0 12 -4 18 -8z m152 -38 c12 -2 64 -18 115 -35 51 -17 99 -32 107 -34 30 -8 165 -57 169 -60 4 -4 -109 -164 -139 -196 -8 -9 -26 -33 -40 -53 -22 -31 -137 -186 -144 -194 -3 -2 -155 64 -286 125 -30 14 -73 32 -95 41 -75 29 -77 33 -42 74 18 20 39 44 47 55 8 10 33 41 55 68 22 28 47 58 55 69 8 10 22 26 30 35 9 9 36 40 60 69 34 43 47 52 64 47 12 -3 31 -8 44 -11z m3792 -193 c224 -144 560 -401 724 -551 86 -79 187 -182 183 -187 -2 -2 -97 52 -211 119 -114 68 -221 131 -239 142 -18 10 -111 64 -207 121 -96 56 -250 147 -343 200 -188 111 -176 91 -124 207 l30 68 36 -22 c20 -12 88 -56 151 -97z m-3316 33 c9 -3 16 -10 16 -15 0 -15 -122 -149 -135 -149 -29 0 -22 19 32 93 56 79 60 81 87 71z m2678 -32 c35 -21 70 -41 78 -45 8 -4 29 -15 45 -26 17 -10 158 -91 315 -181 157 -90 299 -171 315 -181 17 -10 39 -23 50 -28 11 -5 43 -22 71 -39 28 -16 78 -45 110 -63 108 -59 539 -302 564 -317 14 -8 42 -26 62 -40 l38 -24 -36 -29 c-96 -76 -227 -280 -326 -504 -17 -38 -39 -88 -49 -111 -18 -40 -30 -74 -70 -189 -60 -172 -103 -363 -115 -507 l-7 -87 -201 203 c-110 111 -238 235 -283 275 -374 330 -755 594 -1177 816 l-149 78 6 71 c6 68 26 133 68 223 10 24 19 45 19 47 0 3 30 56 67 118 167 283 323 439 451 455 39 4 61 0 122 -27 86 -37 141 -55 188 -64 27 -5 32 -2 32 13 0 25 -46 59 -166 122 -118 62 -108 55 -99 68 9 15 7 16 77 -27z m-4207 -17 c42 -18 46 -7 -44 -115 -50 -60 -71 -80 -71 -66 0 31 36 146 53 167 12 15 23 28 23 28 1 1 18 -6 39 -14z m1671 -11 c22 -9 73 -32 114 -51 41 -19 92 -42 113 -50 20 -8 37 -19 37 -24 0 -4 -17 -42 -37 -84 -31 -66 -39 -76 -58 -71 -11 3 -82 35 -157 71 -76 36 -144 65 -152 65 -32 0 -25 23 30 90 31 38 60 70 64 70 4 0 25 -7 46 -16z m-1495 -65 c52 -22 112 -49 134 -58 22 -10 66 -28 98 -41 31 -13 57 -27 57 -32 0 -5 -24 -38 -52 -75 -129 -163 -393 -548 -389 -567 1 -3 -8 -15 -19 -26 -11 -11 -20 -26 -20 -34 0 -17 -33 -75 -110 -191 -33 -49 -67 -104 -76 -122 -9 -18 -22 -37 -30 -44 -8 -6 -14 -15 -14 -20 0 -8 -103 -173 -120 -192 -4 -5 -45 -2 -91 7 -46 8 -117 18 -156 22 -47 4 -73 11 -73 19 0 6 9 41 19 76 11 35 27 89 35 119 9 33 33 78 58 111 38 49 94 131 164 239 77 120 184 347 230 487 24 74 38 97 141 223 63 77 115 140 117 140 2 0 46 -18 97 -41z m1892 -115 c87 -44 81 -38 68 -61 -6 -10 -26 -52 -44 -93 -19 -41 -49 -107 -67 -147 l-33 -71 -109 -7 c-60 -4 -111 -6 -113 -4 -2 2 18 38 44 80 26 42 76 135 111 207 36 72 66 131 68 131 1 1 35 -15 75 -35z m-2248 -50 c-8 -27 -27 -63 -42 -81 -39 -45 -104 -128 -218 -278 -54 -71 -105 -132 -114 -133 -14 -3 -14 -2 1 10 15 12 60 77 193 273 73 110 187 266 191 262 2 -2 -3 -26 -11 -53z m1515 26 c0 -14 -140 -180 -152 -180 -8 0 24 50 106 163 19 27 46 37 46 17z m5045 -65 c77 -32 154 -63 170 -70 17 -7 62 -24 100 -40 39 -15 84 -33 100 -40 17 -7 45 -16 64 -20 33 -7 33 -7 27 -54 -30 -243 -30 -461 0 -746 19 -183 31 -253 85 -490 48 -207 62 -263 85 -319 l24 -59 -23 19 c-12 10 -47 42 -77 71 -195 183 -454 359 -745 507 -170 86 -227 111 -392 172 -70 25 -138 50 -151 55 l-22 9 37 62 c43 70 154 188 198 210 17 9 44 19 62 22 31 7 32 7 70 -73 36 -77 57 -98 69 -68 2 7 -2 27 -11 43 -15 30 -20 54 -9 54 3 0 39 -14 81 -31 86 -36 145 -43 151 -18 3 15 -85 98 -144 136 -95 62 -89 55 -86 108 5 73 41 272 59 330 59 181 109 299 126 292 7 -2 75 -30 152 -62z m-5853 32 c-4 -7 -37 -48 -73 -92 -65 -80 -274 -349 -339 -437 -19 -26 -39 -48 -43 -48 -5 0 10 24 33 53 24 28 73 93 109 142 37 50 120 161 184 248 65 87 122 155 128 151 6 -3 6 -11 1 -17z m308 -115 c118 -52 216 -96 218 -98 3 -2 -52 -83 -81 -119 -14 -18 -112 -153 -127 -175 -8 -12 -22 -32 -31 -44 -9 -11 -50 -70 -91 -131 -49 -72 -120 -156 -204 -241 -71 -72 -187 -199 -259 -282 -71 -83 -134 -151 -139 -151 -5 -1 -40 8 -78 19 -61 19 -68 23 -63 43 2 12 13 60 24 107 11 47 36 159 56 250 20 91 43 193 52 228 12 47 14 71 6 95 -7 23 -6 36 1 44 6 5 56 65 111 133 55 67 125 152 155 189 30 36 87 106 125 153 56 71 74 86 90 81 11 -3 117 -48 235 -101z m655 64 c101 -47 112 -52 158 -70 41 -17 41 -17 12 -116 -8 -25 -17 -60 -20 -77 -4 -18 -10 -33 -14 -33 -5 0 -50 20 -102 44 -139 65 -211 97 -236 107 -13 5 -23 12 -23 17 0 8 41 58 107 132 13 14 23 29 23 33 0 5 3 7 8 5 4 -2 43 -21 87 -42z m960 -103 c26 -16 59 -36 73 -45 15 -10 39 -24 53 -32 37 -21 273 -184 363 -250 78 -58 105 -86 70 -72 -97 38 -381 126 -522 161 -96 24 -176 45 -178 47 -3 4 86 218 91 218 1 0 24 -12 50 -27z m-688 -5 c15 -7 29 -13 31 -14 3 -1 -51 -98 -85 -152 -8 -13 -17 -21 -20 -18 -8 7 29 196 38 196 5 0 21 -5 36 -12z m-2037 -111 c-46 -104 -104 -223 -133 -272 -62 -105 -152 -235 -155 -226 -2 5 13 64 33 130 19 66 34 124 33 129 -3 10 106 147 191 242 22 25 41 49 41 54 0 5 3 6 7 3 3 -4 -4 -31 -17 -60z m1390 25 c0 -4 -20 -30 -45 -57 l-46 -50 37 58 c33 51 54 70 54 49z m157 -66 c43 -18 113 -50 156 -70 75 -35 153 -72 287 -134 36 -16 97 -44 135 -62 39 -18 104 -48 145 -67 41 -19 111 -52 155 -73 44 -21 112 -52 150 -70 78 -36 778 -381 784 -387 3 -2 -22 -32 -56 -66 -300 -309 -531 -928 -510 -1366 3 -64 8 -124 12 -133 14 -34 -6 -24 -105 55 -9 7 -51 39 -95 71 -44 33 -82 62 -85 65 -7 9 -242 182 -385 284 -66 47 -145 104 -176 126 -31 23 -59 41 -62 41 -3 0 -34 20 -69 44 -244 170 -660 393 -970 521 -65 27 -118 54 -118 61 0 7 9 34 21 61 12 26 25 59 29 73 5 14 23 63 40 110 55 147 88 252 106 335 16 79 18 83 93 161 88 93 240 259 297 324 84 96 118 130 130 130 7 0 48 -15 91 -34z m683 -76 c0 -9 -37 -89 -45 -98 -6 -6 -185 81 -185 89 0 11 41 16 143 18 54 0 87 -3 87 -9z m445 -55 c28 -13 93 -42 145 -65 52 -23 137 -62 188 -86 52 -24 95 -44 97 -44 2 0 50 -22 107 -49 56 -27 130 -61 163 -76 33 -15 87 -40 120 -55 176 -81 278 -132 301 -152 14 -13 37 -23 52 -24 26 -2 95 -34 497 -228 93 -46 190 -93 215 -104 45 -22 285 -210 414 -325 162 -144 396 -374 396 -389 0 -3 -25 -46 -56 -95 -62 -99 -156 -283 -198 -388 -16 -38 -32 -79 -37 -90 -10 -22 -57 -171 -82 -255 -60 -207 -95 -515 -77 -695 5 -60 8 -110 5 -113 -4 -4 -63 35 -80 53 -5 7 -30 27 -55 46 -25 19 -52 39 -60 46 -114 92 -555 428 -650 496 -14 9 -63 45 -110 78 -311 223 -617 406 -949 570 l-163 80 7 57 c26 217 150 535 290 742 48 71 167 219 235 293 16 18 22 16 151 -38 108 -46 210 -84 227 -85 1 0 2 9 2 19 0 12 -18 32 -47 52 -79 53 -309 181 -453 251 -231 114 -652 319 -727 355 -42 20 -73 41 -73 49 0 9 11 39 23 67 13 29 32 71 43 95 18 42 20 43 54 37 19 -4 58 -17 85 -30z m-2957 -119 c3 -26 -27 -149 -64 -266 -17 -53 -80 -272 -101 -350 -14 -52 -75 -263 -108 -375 -8 -27 -49 -167 -91 -310 -109 -378 -113 -391 -132 -414 -9 -11 -37 -50 -62 -86 -25 -36 -70 -101 -100 -143 -30 -42 -66 -94 -80 -114 -28 -43 -30 -43 -73 -24 -65 30 -154 57 -276 82 -111 24 -148 27 -316 27 -152 0 -211 -4 -295 -21 -58 -12 -113 -24 -123 -27 -12 -5 -20 1 -29 20 -12 27 -10 30 92 124 115 107 310 300 440 437 46 49 118 125 160 169 232 244 556 603 672 745 20 25 47 57 60 72 13 14 59 73 103 130 44 56 82 105 85 108 3 3 41 53 84 113 97 133 147 167 154 103z m648 -73 c-7 -27 -46 -194 -106 -458 -10 -44 -30 -129 -44 -190 -14 -60 -35 -150 -46 -200 -23 -98 -44 -191 -84 -360 -15 -60 -33 -139 -41 -175 -37 -159 -109 -459 -146 -608 -23 -90 -49 -203 -59 -252 -22 -107 -45 -158 -75 -166 -12 -3 -48 4 -81 16 -32 11 -97 27 -143 35 -245 43 -564 -22 -795 -163 -74 -45 -66 -39 -149 -108 -37 -31 -71 -54 -73 -51 -3 3 27 43 66 89 79 91 179 228 341 468 58 85 123 180 144 210 221 314 682 1004 855 1280 29 47 68 108 85 135 36 56 190 312 254 422 23 40 49 77 59 82 27 16 44 13 38 -6z m554 -220 c0 -8 -39 -108 -80 -208 -16 -38 -45 -113 -65 -165 -38 -100 -100 -262 -142 -370 -14 -36 -31 -81 -38 -100 -7 -19 -25 -66 -40 -105 -39 -100 -49 -128 -91 -240 -20 -55 -47 -129 -61 -165 -13 -36 -31 -85 -39 -110 -9 -25 -22 -59 -30 -77 -8 -17 -14 -36 -14 -42 0 -6 -7 -25 -15 -43 -8 -18 -31 -80 -51 -138 -20 -58 -40 -114 -45 -125 -5 -11 -13 -33 -19 -50 -5 -16 -30 -88 -55 -160 -26 -71 -55 -155 -66 -185 -10 -30 -50 -147 -89 -260 -39 -113 -81 -234 -92 -270 -11 -36 -23 -69 -28 -73 -4 -5 -23 5 -41 21 -147 126 -313 208 -514 252 -158 35 -433 23 -558 -26 -28 -11 -19 8 44 86 33 41 73 90 87 109 156 196 194 239 220 246 53 13 218 34 274 35 87 0 272 -28 357 -55 42 -14 79 -21 82 -17 4 4 46 165 94 357 48 193 91 364 96 380 5 17 32 125 59 240 95 398 78 352 177 473 48 59 155 188 238 287 82 100 211 254 285 343 117 140 160 182 160 155z m5045 -253 c156 -55 490 -217 635 -307 226 -141 358 -233 315 -220 -11 4 -45 13 -75 21 -51 14 -221 66 -400 122 -134 42 -332 102 -480 147 -80 24 -153 48 -163 53 -16 9 -13 19 33 113 42 85 53 102 68 96 9 -5 40 -16 67 -25z m-6299 -152 c3 -4 9 -6 13 -4 4 3 25 1 47 -4 21 -5 62 -12 89 -15 28 -4 51 -8 52 -9 2 -1 -20 -38 -49 -82 -28 -43 -79 -122 -112 -174 -34 -52 -72 -112 -85 -132 -21 -36 -25 -38 -74 -38 -59 0 -71 -6 -81 -38 -6 -17 -1 -29 22 -50 l30 -28 -42 -61 c-40 -59 -121 -153 -132 -153 -3 0 -3 4 0 9 3 5 22 65 41 133 19 67 41 146 50 173 23 78 85 294 101 355 39 145 29 130 80 128 25 -1 47 -5 50 -10z m629 -128 c0 -1 11 -4 24 -6 41 -7 45 -1 -63 -123 -70 -81 -70 -80 -61 -46 4 17 9 37 10 45 2 8 4 16 5 18 3 3 5 11 14 62 5 25 10 48 13 53 4 6 58 3 58 -3z m5520 -26 c28 -8 104 -31 170 -50 66 -18 134 -38 151 -44 17 -6 62 -19 100 -29 38 -10 141 -40 229 -66 88 -26 174 -51 190 -55 59 -16 130 -40 143 -49 11 -6 1 -20 -38 -57 -47 -44 -132 -162 -173 -239 -140 -266 -230 -584 -213 -753 5 -50 4 -62 -6 -56 -7 4 -47 29 -88 55 -158 99 -626 349 -655 349 -2 0 -40 16 -82 36 -70 33 -178 76 -225 91 -25 8 -22 21 18 78 19 28 45 65 57 82 12 18 25 33 29 33 3 0 39 -38 80 -86 119 -139 196 -217 207 -209 22 13 9 46 -42 107 -43 51 -57 76 -70 130 -21 84 -23 246 -3 273 13 19 17 18 102 -20 294 -128 334 -140 334 -101 0 14 -126 104 -235 166 -33 19 -69 40 -80 47 -11 6 -35 19 -53 29 -19 9 -36 22 -38 29 -5 13 52 194 86 274 25 57 30 58 105 35z m-5020 -143 c11 -5 52 -21 90 -37 39 -15 116 -50 173 -76 l103 -49 -60 -69 c-60 -71 -70 -103 -28 -96 11 1 47 -3 78 -9 32 -7 61 -10 63 -7 3 3 12 0 19 -6 8 -7 16 -10 18 -7 3 2 25 -1 49 -6 25 -6 59 -12 75 -14 64 -9 105 -17 105 -22 0 -14 -103 -212 -109 -209 -20 13 -218 59 -288 67 -86 11 -123 3 -123 -26 0 -25 -18 -25 -77 -1 -32 13 -89 36 -128 51 -38 15 -83 33 -100 40 -16 7 -48 18 -70 25 -22 7 -44 16 -48 20 -4 3 28 90 71 191 99 229 99 230 106 251 5 18 17 17 81 -11z m558 -259 c54 -30 96 -56 94 -58 -2 -2 -30 1 -63 6 -32 4 -106 12 -162 15 l-104 7 48 49 c57 57 49 58 187 -19z m-798 -302 c27 -10 127 -49 220 -85 178 -70 344 -139 432 -180 28 -14 54 -25 57 -25 5 0 104 -45 326 -148 114 -53 387 -183 648 -308 133 -64 230 -110 322 -152 25 -11 97 -45 161 -75 l116 -55 12 -78 c35 -234 37 -454 6 -648 -23 -144 -102 -442 -150 -566 -7 -19 -25 -69 -40 -110 -15 -41 -33 -91 -40 -110 -23 -57 -61 -160 -90 -240 -14 -41 -31 -86 -37 -100 -50 -122 -168 -526 -168 -577 0 -46 -16 -21 -44 70 -44 140 -134 304 -249 452 -21 28 -51 66 -65 85 -98 128 -370 409 -512 528 -41 35 -84 71 -95 81 -11 9 -38 30 -60 47 -22 16 -42 31 -45 35 -3 3 -43 32 -90 64 -47 32 -105 73 -130 90 -133 92 -374 222 -577 312 -169 75 -474 179 -498 169 -8 -3 -12 0 -10 7 6 19 74 246 92 307 20 68 111 338 124 365 8 19 20 51 59 165 10 30 33 93 50 140 18 47 36 99 41 115 5 17 13 39 18 50 6 11 17 40 25 65 8 25 24 70 36 100 29 77 71 192 77 213 7 22 16 21 78 -3z m1346 -43 c30 -22 158 -113 183 -129 10 -7 58 -43 105 -79 48 -36 109 -81 137 -99 27 -19 51 -36 54 -40 3 -3 20 -16 38 -29 46 -32 33 -37 -25 -8 -26 13 -122 54 -213 92 -91 37 -178 73 -195 80 -16 7 -50 20 -75 28 -89 31 -154 57 -161 64 -4 5 10 46 32 91 l39 84 29 -19 c16 -10 39 -26 52 -36z m3404 -163 c10 -3 195 -80 249 -106 16 -7 110 -53 208 -101 151 -74 226 -114 396 -212 76 -44 273 -168 277 -175 3 -6 -13 -2 -37 8 -45 19 -302 103 -448 146 -137 40 -472 142 -663 201 -136 43 -132 29 -59 167 27 53 49 85 56 80 6 -3 16 -7 21 -8z m-2295 -113 c190 -92 280 -141 280 -152 0 -8 -128 -274 -149 -310 -9 -15 -29 -7 -161 60 l-152 76 6 155 c6 168 15 252 25 246 3 -2 71 -36 151 -75z m-4465 -146 c22 -3 56 -10 75 -15 19 -5 50 -12 69 -15 18 -3 47 -12 65 -19 17 -7 36 -14 41 -15 38 -7 85 -23 85 -29 0 -4 -25 -52 -56 -107 -31 -54 -60 -108 -64 -119 -5 -12 -36 -57 -69 -101 -34 -44 -89 -125 -123 -180 -39 -61 -91 -127 -136 -171 l-74 -71 -77 151 c-43 83 -95 180 -116 216 -20 36 -51 90 -68 120 -16 30 -65 114 -108 185 -88 148 -92 130 41 159 41 9 95 18 120 20 60 5 344 -1 395 -9z m6675 -76 c36 -10 97 -27 135 -38 39 -12 102 -30 140 -41 86 -24 186 -55 375 -115 134 -43 194 -62 308 -97 l44 -13 -35 -45 c-58 -76 -187 -326 -187 -362 0 -5 -7 -24 -14 -41 -26 -57 -86 -294 -107 -427 -9 -56 -14 -166 -13 -320 0 -235 6 -285 50 -439 6 -21 -5 -17 -122 44 -71 37 -133 71 -139 75 -33 24 -511 267 -700 355 -150 70 -148 69 -217 99 -52 22 -57 28 -63 63 -4 21 -9 46 -12 56 -4 17 -2 17 39 1 24 -10 48 -21 54 -26 15 -11 143 -55 174 -60 20 -2 25 2 28 22 2 20 -10 34 -63 73 -139 105 -232 158 -605 350 -129 66 -280 146 -335 177 -148 84 -355 200 -359 200 -8 0 -146 82 -146 86 0 4 62 138 123 267 l23 49 109 -74 c135 -91 235 -161 297 -207 25 -20 65 -49 89 -66 46 -33 304 -229 474 -360 271 -209 400 -305 412 -305 24 0 27 30 4 46 -20 14 -21 23 -21 160 0 177 14 349 41 509 28 163 49 242 111 414 6 17 13 21 26 16 9 -4 46 -16 82 -26z m-7378 -199 c68 -121 109 -197 215 -398 l64 -123 -10 -62 c-6 -34 -20 -116 -31 -182 -11 -66 -27 -163 -35 -215 -8 -52 -21 -133 -30 -180 -8 -47 -26 -152 -40 -235 -15 -82 -33 -186 -40 -230 -8 -44 -19 -118 -25 -165 l-11 -86 -41 -12 c-23 -7 -44 -9 -48 -5 -18 20 -54 1464 -44 1791 3 123 7 222 9 220 1 -2 32 -55 67 -118z m1107 -257 c-8 -9 -25 -28 -38 -42 -46 -51 -185 -227 -213 -271 -16 -25 -36 -48 -46 -52 -16 -6 -102 -11 -102 -5 0 2 35 83 81 187 23 51 83 95 222 160 93 44 117 50 96 23z m-395 -226 c3 4 1 -9 -5 -28 -25 -80 -31 -89 -56 -89 -13 0 -40 -7 -60 -15 -44 -19 -53 -19 -53 -1 0 22 142 147 155 136 7 -6 15 -7 19 -3z m-394 -106 c0 -5 29 -62 65 -126 36 -65 65 -120 65 -121 0 -2 18 -33 40 -69 43 -70 48 -90 26 -98 -8 -3 -33 -31 -57 -62 -42 -55 -42 -56 -27 -88 27 -56 30 -92 13 -133 -48 -115 -104 -309 -141 -496 l-18 -88 -88 0 c-70 0 -88 3 -88 15 0 13 5 43 30 170 10 49 26 164 55 390 8 61 21 151 29 200 14 81 55 357 71 478 3 26 10 45 16 42 5 -4 9 -10 9 -14z m283 -95 c5 -13 54 -14 177 -1 92 10 229 13 340 7 l115 -6 -65 -12 c-128 -24 -433 -149 -491 -200 -14 -13 -17 -13 -22 3 -3 10 -24 61 -45 113 -22 52 -38 98 -35 103 7 11 20 8 26 -7z m1037 -35 c14 -1 50 -16 79 -35 l53 -33 -63 -36 c-35 -19 -128 -78 -206 -129 -78 -51 -179 -115 -224 -143 -114 -70 -237 -158 -295 -210 -27 -24 -52 -44 -55 -45 -3 0 -32 78 -65 172 -65 189 -68 194 -155 205 -37 5 -38 7 -24 23 23 26 208 114 312 149 51 18 135 41 185 53 88 19 306 37 393 32 22 -1 51 -2 65 -3z m532 -121 c84 -23 84 -26 20 -77 -211 -171 -329 -277 -517 -468 -88 -89 -202 -211 -254 -271 l-94 -111 -71 30 c-39 16 -74 32 -79 36 -21 20 389 467 551 602 146 120 221 179 229 179 4 0 21 -7 37 -15 26 -14 31 -14 47 1 9 8 27 38 39 66 14 33 26 48 35 44 8 -3 33 -10 57 -16z m-297 -20 c10 -11 26 -22 36 -25 15 -5 5 -16 -49 -57 -183 -139 -493 -430 -635 -597 -40 -46 -81 -95 -92 -108 -18 -21 -24 -22 -55 -13 -56 16 -62 23 -95 126 l-32 97 100 76 c235 179 633 440 739 484 19 8 39 20 42 26 10 16 21 14 41 -9z m525 -54 c36 -13 65 -28 65 -34 0 -5 -31 -43 -70 -84 -38 -40 -101 -110 -139 -156 -38 -45 -71 -80 -73 -78 -4 3 70 192 106 271 10 22 24 55 31 73 7 17 13 32 14 32 0 0 30 -11 66 -24z m-172 -58 c-11 -29 -27 -67 -34 -85 -8 -17 -14 -34 -14 -38 0 -4 -6 -21 -14 -38 -8 -18 -31 -84 -52 -147 -36 -109 -47 -129 -126 -225 -13 -16 -158 -197 -211 -265 -7 -8 -34 -43 -60 -77 -27 -35 -51 -63 -55 -63 -4 0 -20 7 -36 15 -15 8 -77 36 -137 61 -60 25 -109 49 -109 53 0 25 461 503 650 672 87 79 213 188 217 189 1 0 -7 -24 -19 -52z m339 -10 c24 -10 54 -23 68 -28 23 -9 25 -12 14 -32 -7 -13 -52 -63 -100 -113 -75 -78 -152 -165 -225 -253 -10 -13 -26 -32 -34 -42 -19 -22 -190 -41 -190 -21 0 31 51 108 146 221 58 69 137 164 176 212 50 62 75 85 87 81 9 -3 35 -14 58 -25z m467 -234 c22 -8 21 -13 -18 -96 -18 -40 -44 -97 -56 -125 -20 -46 -26 -53 -51 -53 -51 0 -50 2 42 167 10 17 27 50 39 72 22 45 21 44 44 35z m-540 -101 c-21 -38 -47 -85 -58 -105 -12 -20 -30 -39 -41 -42 -29 -8 -65 -7 -65 2 0 13 185 212 197 212 3 0 -12 -30 -33 -67z m633 47 c32 -19 33 -20 18 -52 -8 -18 -27 -68 -42 -111 l-28 -79 -43 5 c-24 3 -46 8 -50 11 -3 4 1 26 10 49 52 133 82 197 92 197 6 0 26 -9 43 -20z m135 -87 c52 -38 52 -37 39 -79 -5 -16 -14 -48 -20 -72 -10 -35 -16 -42 -31 -37 -10 3 -44 10 -75 15 -32 5 -59 11 -62 13 -4 5 21 106 53 205 5 16 24 6 96 -45z m-2727 -75 c41 -124 95 -301 95 -316 0 -16 -172 -97 -226 -106 l-42 -7 8 38 c9 45 45 188 64 258 8 28 24 87 36 133 13 45 26 82 30 82 4 0 20 -37 35 -82z m2900 -66 c-3 -8 -5 -23 -5 -35 0 -44 -13 -51 -69 -37 -58 14 -60 20 -39 109 l11 50 54 -37 c31 -22 51 -42 48 -50z m110 -74 c35 -29 62 -55 60 -59 -2 -3 -33 3 -67 14 -35 10 -69 21 -75 23 -8 2 -13 20 -13 45 0 51 7 49 95 -23z m-1216 -25 c-18 -32 -49 -85 -69 -118 -20 -33 -49 -82 -64 -110 -87 -157 -149 -255 -161 -255 -16 0 -115 49 -115 57 0 5 85 133 161 243 35 51 109 149 148 198 32 39 38 42 83 42 l49 0 -32 -57z m-139 39 c0 -4 -12 -21 -27 -38 -55 -62 -257 -324 -298 -387 -9 -13 -19 -11 -78 16 -37 17 -66 34 -65 37 2 3 64 88 138 187 132 177 136 181 175 185 79 7 155 7 155 0z m696 0 c11 -6 -11 -59 -128 -312 -14 -30 -71 -148 -127 -263 l-101 -207 -52 26 c-29 15 -55 28 -56 29 -2 2 19 41 46 87 58 96 239 413 290 508 74 136 92 156 128 132z m154 -22 c0 -3 -38 -122 -84 -265 -47 -143 -104 -321 -126 -395 -23 -74 -46 -150 -52 -167 -5 -18 -14 -33 -19 -33 -5 0 -43 16 -85 35 -41 19 -79 35 -83 35 -5 0 6 28 23 63 35 72 39 80 171 382 54 121 100 225 104 230 4 6 18 36 31 68 l23 58 48 -3 c27 -2 49 -5 49 -8z m170 -27 c19 -2 35 -5 37 -6 3 -3 -80 -346 -101 -422 -8 -27 -31 -104 -51 -170 -20 -66 -50 -167 -67 -225 -17 -58 -32 -106 -33 -107 -2 -3 -84 27 -137 51 l-36 16 13 42 c7 24 35 111 63 193 70 213 126 391 164 528 l33 118 40 -6 c22 -4 56 -9 75 -12z m187 -47 c7 -7 -55 -602 -76 -726 -5 -30 -15 -104 -22 -163 -8 -70 -16 -107 -23 -104 -232 81 -228 79 -221 101 19 58 41 139 90 331 29 116 72 280 94 365 22 85 43 166 47 180 3 14 7 30 9 37 3 8 16 8 51 -3 26 -8 49 -16 51 -18z m82 -16 c10 -5 30 -11 45 -14 72 -13 69 -9 62 -110 -7 -98 -30 -372 -46 -551 -6 -60 -15 -166 -21 -235 -6 -69 -15 -128 -18 -133 -4 -4 -40 3 -80 15 l-73 23 6 80 c13 168 78 808 92 903 5 35 7 36 33 22z m251 -72 c0 3 16 -10 36 -29 25 -24 33 -40 29 -54 -3 -11 -10 -173 -15 -360 -14 -533 -20 -617 -39 -609 -9 3 -41 13 -71 21 -30 7 -66 18 -80 24 l-25 9 7 143 c5 78 17 266 29 417 11 151 23 318 26 371 l6 96 48 -17 c27 -10 49 -16 49 -12z m164 -196 c-42 -22 -27 -47 29 -48 45 -1 50 -4 102 -62 l56 -61 -16 -93 c-9 -51 -20 -128 -25 -170 -9 -78 -24 -111 -151 -323 -10 -16 -28 -49 -40 -72 -13 -24 -26 -43 -31 -43 -10 0 -10 22 2 355 5 149 10 347 12 442 l3 172 43 -42 42 -41 -26 -14z m-3249 45 c-37 -25 -140 -56 -218 -67 -101 -13 -247 -13 -247 0 0 6 41 10 103 10 78 0 130 7 220 29 65 16 121 31 124 35 4 3 13 6 22 6 12 0 11 -3 -4 -13z m3506 -308 c7 -14 1 -33 -26 -81 l-36 -63 6 55 c13 122 16 132 31 119 9 -7 19 -20 25 -30z m-4118 -51 l57 -82 -47 -12 c-61 -16 -150 -50 -177 -69 -35 -25 -38 -17 -11 28 33 52 91 169 98 197 3 11 9 20 14 20 4 0 34 -37 66 -82z m4701 -37 c-3 -9 -9 -106 -11 -216 -5 -180 4 -335 24 -429 l6 -29 -64 7 c-143 15 -149 17 -149 41 0 12 -7 44 -15 71 -11 38 -12 58 -4 89 6 22 13 51 15 65 3 14 7 33 10 42 3 9 6 25 9 35 2 10 13 52 24 93 12 41 23 80 24 85 7 25 30 95 49 147 l20 56 34 -20 c25 -15 33 -25 28 -37z m123 -75 l51 -39 -5 -131 c-3 -88 0 -175 11 -264 23 -189 27 -172 -47 -172 l-63 0 -17 153 c-11 92 -17 224 -17 336 0 174 1 183 18 169 9 -8 40 -31 69 -52z m195 -161 c34 -31 37 -40 53 -132 16 -98 56 -272 70 -305 7 -16 -1 -18 -88 -18 -110 0 -107 -3 -107 103 0 40 -7 149 -15 242 -8 94 -15 176 -15 183 0 14 24 -4 102 -73z m219 -207 c28 -28 38 -49 44 -85 4 -26 15 -73 26 -103 10 -30 19 -58 19 -62 0 -14 -120 -9 -124 5 -3 6 -18 66 -34 132 -16 66 -38 148 -50 183 l-20 63 51 -48 c29 -26 68 -64 88 -85z m-839 -10 c1 -10 5 -18 8 -18 4 0 7 -6 8 -12 5 -66 16 -128 22 -128 4 0 10 -8 12 -18 5 -16 0 -17 -46 -10 -28 4 -79 10 -113 14 -35 4 -63 9 -63 12 0 2 32 61 71 129 l72 125 14 -38 c7 -22 14 -47 15 -56z m2257 -16 l32 -28 -36 -37 c-32 -33 -75 -50 -75 -29 -1 15 35 122 41 122 4 0 21 -13 38 -28z m-1200 -212 c7 -12 1 -15 -30 -17 -39 -3 -41 -1 -60 45 -12 26 -27 65 -35 87 l-14 40 65 -70 c36 -38 69 -77 74 -85z" transform="translate(0.000000,2000.000000) scale(0.100000,-0.100000)"/><path d="M14010 15049 c0 -5 9 -9 20 -9 11 0 20 2 20 4 0 2 -9 6 -20 9 -11 3 -20 1 -20 -4z" transform="translate(0.000000,2000.000000) scale(0.100000,-0.100000)"/><path d="M5930 5950 c-98 -13 -300 -70 -300 -85 0 -1 13 -27 30 -58 16 -30 49 -100 74 -154 24 -54 55 -123 69 -153 43 -96 153 -360 205 -495 166 -429 234 -764 218 -1063 l-7 -122 39 -48 c51 -61 110 -153 205 -323 64 -114 82 -138 104 -143 16 -3 66 -15 113 -26 248 -59 706 -145 960 -180 47 -6 114 -15 150 -21 106 -15 415 -47 560 -58 74 -6 212 -16 305 -23 228 -17 1083 -17 1315 0 361 26 438 33 565 47 198 23 352 44 685 96 97 15 411 79 565 116 150 35 235 59 395 108 47 14 112 34 145 44 63 19 328 119 405 153 78 35 363 176 416 207 l51 30 6 111 c17 295 131 668 321 1048 92 185 260 485 333 596 18 28 31 52 28 54 -9 9 -99 -32 -590 -268 -221 -106 -298 -142 -415 -190 -41 -17 -84 -35 -95 -40 -63 -29 -361 -131 -480 -163 -201 -56 -430 -98 -708 -129 -176 -20 -242 -22 -802 -22 -423 -1 -650 3 -740 12 -71 7 -200 19 -285 27 -194 18 -480 52 -540 64 -25 5 -79 15 -120 21 -64 10 -151 27 -369 71 -59 12 -328 78 -366 90 -16 5 -91 27 -165 49 -504 147 -998 365 -1385 611 -33 21 -61 37 -62 36 -1 -1 20 -67 47 -147 83 -248 123 -421 161 -702 29 -216 29 -598 0 -818 -41 -310 -119 -622 -179 -711 -46 -70 -124 -103 -185 -80 -50 19 -50 46 -3 187 100 299 133 466 157 805 16 223 -5 494 -57 759 -23 114 -85 334 -118 420 -52 132 -104 249 -150 340 -49 95 -57 106 -87 113 -52 11 -345 17 -419 7z" transform="translate(0.000000,2000.000000) scale(0.100000,-0.100000)"/></g></svg>